<svg width="309" height="107" viewBox="0 0 309 107" fill="none" xmlns="http://www.w3.org/2000/svg">
<path d="M16.8395 58V24.1849H18.5589V58H16.8395ZM20.2783 58V24.1849H21.9977V58H20.2783ZM23.7171 58V24.1849H28.8754V58H23.7171ZM30.5948 58V24.1849H35.753V58H30.5948ZM40.9113 58V24.1849H42.6307V58H40.9113ZM29.6778 64.3045H25.9524V62.9863H35.1226V64.3045H31.2252V76.2831H29.6778V64.3045ZM44.3769 58V24.1849H49.5352V58H44.3769ZM51.2546 58V24.1849H52.974V58H51.2546ZM54.6934 58V24.1849H56.4128V58H54.6934ZM61.5711 58V24.1849H66.7293V58H61.5711ZM68.4487 58V24.1849H70.1681V58H68.4487ZM53.891 62.9863H55.6104V63.1582C55.534 63.2347 55.4767 63.3302 55.4385 63.4448C55.4385 63.5212 55.4385 63.6932 55.4385 63.9606V68.6604H60.5967V62.9863H62.3735V63.1582C62.297 63.2347 62.2397 63.3302 62.2015 63.4448C62.2015 63.5212 62.2015 63.6932 62.2015 63.9606V76.2831H60.5967V69.9786H55.4385V76.2831H53.891V62.9863ZM71.9144 58V24.1849H77.0726V58H71.9144ZM78.7921 58V24.1849H80.5115V58H78.7921ZM82.2309 58V24.1849H87.3891V58H82.2309ZM92.5474 58V24.1849H94.2668V58H92.5474ZM95.9862 58V24.1849H97.7056V58H95.9862ZM81.6004 62.9863H89.739V64.3045H82.976V68.6604H88.5927V70.0359H82.976V74.9649H89.6817V76.2831H81.6004V62.9863ZM99.4519 58V24.1849H101.171V58H99.4519ZM106.33 58V24.1849H111.488V58H106.33ZM113.207 58V24.1849H114.927V58H113.207ZM116.646 58V24.1849H121.804V58H116.646ZM123.524 58V24.1849H125.243V58H123.524ZM126.989 58V24.1849H132.148V58H126.989ZM133.867 58V24.1849H139.025V58H133.867ZM140.745 58V24.1849H142.464V58H140.745ZM147.622 58V24.1849H149.342V58H147.622ZM151.061 58V24.1849H152.781V58H151.061ZM141.49 76.5123C140.496 76.5123 139.617 76.264 138.853 75.7673C138.051 75.2705 137.42 74.5255 136.962 73.532C136.503 72.5004 136.274 71.2204 136.274 69.692C136.274 68.0872 136.523 66.769 137.019 65.7374C137.516 64.7439 138.146 64.0179 138.911 63.5594C139.675 63.1391 140.496 62.929 141.375 62.929C142.33 62.929 143.152 63.1582 143.84 63.6167C144.527 64.0753 145.043 64.7057 145.387 65.5081L144.126 66.1386L143.954 66.1959L143.897 66.0812V65.9093C143.897 65.7565 143.801 65.5463 143.61 65.2788C143.305 64.8585 142.961 64.5529 142.579 64.3618C142.197 64.1708 141.795 64.0753 141.375 64.0753C140.229 64.0753 139.331 64.572 138.681 65.5654C138.07 66.5206 137.764 67.8771 137.764 69.6347C137.764 70.7045 137.917 71.6789 138.223 72.5577C138.567 73.3983 139.006 74.0479 139.541 74.5064C140.114 74.9649 140.745 75.1941 141.432 75.1941C141.967 75.1941 142.464 75.0604 142.923 74.7929C143.419 74.4873 143.82 74.0861 144.126 73.5893L145.215 74.3344C144.757 75.0604 144.241 75.5953 143.668 75.9392C143.056 76.3213 142.33 76.5123 141.49 76.5123ZM154.527 58V24.1849H156.246V58H154.527ZM157.966 58V24.1849H163.124V58H157.966ZM164.843 58V24.1849H166.563V58H164.843ZM168.282 58V24.1849H170.002V58H168.282ZM175.16 58V24.1849H180.318V58H175.16ZM164.385 62.9863H166.104V63.1582C166.028 63.2347 165.97 63.3302 165.932 63.4448C165.932 63.5212 165.932 63.6932 165.932 63.9606V75.0222H172.294V76.2831H164.385V62.9863ZM182.064 58V24.1849H183.784V58H182.064ZM185.503 58V24.1849H190.661V58H185.503ZM192.381 58V24.1849H194.1V58H192.381ZM199.258 58V24.1849H204.417V58H199.258ZM206.136 58V24.1849H207.855V58H206.136ZM192.209 75.0222H194.845V64.2472H192.381V62.9863H198.972V64.2472H196.335V75.0222H199.086V76.2831H192.209V75.0222ZM209.602 58V24.1849H211.321V58H209.602ZM213.041 58V24.1849H214.76V58H213.041ZM216.479 58V24.1849H221.638V58H216.479ZM223.357 58V24.1849H225.076V58H223.357ZM230.235 58V24.1849H235.393V58H230.235ZM219.116 62.9863H220.549L226.108 72.8443V62.9863H227.77V63.1582C227.656 63.2347 227.598 63.3302 227.598 63.4448C227.56 63.5212 227.541 63.6932 227.541 63.9606V76.2831H226.395L220.491 65.852V76.2831H219.116V62.9863ZM237.139 58V24.1849H238.859V58H237.139ZM240.578 58V24.1849H245.736V58H240.578ZM247.456 58V24.1849H249.175V58H247.456ZM254.333 58V24.1849H259.492V58H254.333ZM261.211 58V24.1849H262.93V58H261.211ZM247.284 75.0222H249.92V64.2472H247.456V62.9863H254.047V64.2472H251.41V75.0222H254.161V76.2831H247.284V75.0222ZM264.677 58V24.1849H269.835V58H264.677ZM271.554 58V24.1849H276.713V58H271.554ZM278.432 58V24.1849H280.151V58H278.432ZM285.31 58V24.1849H287.029V58H285.31ZM288.748 58V24.1849H290.468V58H288.748ZM279.177 76.5123C278.184 76.5123 277.305 76.264 276.541 75.7673C275.738 75.2705 275.108 74.5255 274.649 73.532C274.191 72.5004 273.961 71.2204 273.961 69.692C273.961 68.0872 274.21 66.769 274.707 65.7374C275.203 64.7439 275.834 64.0179 276.598 63.5594C277.362 63.1391 278.184 62.929 279.062 62.929C280.018 62.929 280.839 63.1582 281.527 63.6167C282.215 64.0753 282.73 64.7057 283.074 65.5081L281.813 66.1386L281.642 66.1959L281.584 66.0812V65.9093C281.584 65.7565 281.489 65.5463 281.298 65.2788C280.992 64.8585 280.648 64.5529 280.266 64.3618C279.884 64.1708 279.483 64.0753 279.062 64.0753C277.916 64.0753 277.018 64.572 276.369 65.5654C275.757 66.5206 275.452 67.8771 275.452 69.6347C275.452 70.7045 275.604 71.6789 275.91 72.5577C276.254 73.3983 276.693 74.0479 277.228 74.5064C277.801 74.9649 278.432 75.1941 279.12 75.1941C279.655 75.1941 280.151 75.0604 280.61 74.7929C281.107 74.4873 281.508 74.0861 281.813 73.5893L282.902 74.3344C282.444 75.0604 281.928 75.5953 281.355 75.9392C280.744 76.3213 280.018 76.5123 279.177 76.5123Z" fill="white"/>
<path d="M94.3725 95.3138V90.7312H90.5315V95.3138H89.629V85.2811H90.5315V89.8706H94.3725V85.2811H95.275V95.3138H94.3725ZM101.935 93.3478C101.935 93.637 101.879 93.9098 101.768 94.1664C101.66 94.4229 101.511 94.6468 101.32 94.838C101.129 95.0292 100.905 95.1808 100.648 95.2928C100.392 95.4 100.119 95.4537 99.8296 95.4537H99.2559C98.9667 95.4537 98.6938 95.4 98.4373 95.2928C98.1808 95.1808 97.9569 95.0292 97.7657 94.838C97.5744 94.6468 97.4228 94.4229 97.3109 94.1664C97.2036 93.9098 97.15 93.637 97.15 93.3478V90.1155C97.15 89.8263 97.2036 89.5535 97.3109 89.2969C97.4228 89.0404 97.5744 88.8165 97.7657 88.6253C97.9569 88.4341 98.1808 88.2848 98.4373 88.1775C98.6938 88.0656 98.9667 88.0096 99.2559 88.0096H99.8296C100.119 88.0096 100.392 88.0656 100.648 88.1775C100.905 88.2848 101.129 88.4341 101.32 88.6253C101.511 88.8165 101.66 89.0404 101.768 89.2969C101.879 89.5535 101.935 89.8263 101.935 90.1155V91.8016H98.0105V93.3968C98.0105 93.5693 98.0432 93.7326 98.1085 93.8865C98.1738 94.0358 98.2624 94.1664 98.3743 94.2783C98.4863 94.3902 98.6169 94.4789 98.7661 94.5442C98.9201 94.6095 99.0833 94.6421 99.2559 94.6421H99.8296C100.002 94.6421 100.163 94.6095 100.312 94.5442C100.466 94.4789 100.599 94.3902 100.711 94.2783C100.823 94.1664 100.912 94.0358 100.977 93.8865C101.042 93.7326 101.075 93.5693 101.075 93.3968V92.921L101.935 93.0609V93.3478ZM101.075 90.0665C101.075 89.894 101.042 89.733 100.977 89.5838C100.912 89.4299 100.823 89.2969 100.711 89.185C100.599 89.0731 100.466 88.9844 100.312 88.9191C100.163 88.8538 100.002 88.8212 99.8296 88.8212H99.2559C99.0833 88.8212 98.9201 88.8538 98.7661 88.9191C98.6169 88.9844 98.4863 89.0731 98.3743 89.185C98.2624 89.2969 98.1738 89.4299 98.1085 89.5838C98.0432 89.733 98.0105 89.894 98.0105 90.0665V91.13H101.075V90.0665ZM108.155 95.3138L107.679 94.6001C107.484 94.8567 107.239 95.0642 106.945 95.2228C106.651 95.3767 106.329 95.4537 105.979 95.4537H105.762C105.473 95.4537 105.2 95.4 104.944 95.2928C104.687 95.1808 104.463 95.0292 104.272 94.838C104.081 94.6468 103.929 94.4229 103.817 94.1664C103.71 93.9098 103.657 93.637 103.657 93.3478V93.2778C103.657 92.9887 103.71 92.7158 103.817 92.4593C103.929 92.2027 104.081 91.9789 104.272 91.7876C104.463 91.5964 104.687 91.4471 104.944 91.3399C105.2 91.2279 105.473 91.1719 105.762 91.1719H107.581V90.0665C107.581 89.894 107.549 89.733 107.484 89.5838C107.418 89.4299 107.33 89.2969 107.218 89.185C107.106 89.0731 106.973 88.9844 106.819 88.9191C106.67 88.8538 106.509 88.8212 106.336 88.8212H105.832C105.66 88.8212 105.497 88.8538 105.343 88.9191C105.193 88.9844 105.063 89.0731 104.951 89.185C104.839 89.2969 104.75 89.4299 104.685 89.5838C104.62 89.733 104.587 89.894 104.587 90.0665V90.3254L103.727 90.1855V90.1155C103.727 89.8263 103.78 89.5535 103.887 89.2969C103.999 89.0404 104.151 88.8165 104.342 88.6253C104.533 88.4341 104.757 88.2848 105.014 88.1775C105.27 88.0656 105.543 88.0096 105.832 88.0096H106.336C106.625 88.0096 106.898 88.0656 107.155 88.1775C107.411 88.2848 107.635 88.4341 107.826 88.6253C108.018 88.8165 108.167 89.0404 108.274 89.2969C108.386 89.5535 108.442 89.8263 108.442 90.1155V95.3138H108.155ZM107.581 91.8436H105.762C105.59 91.8436 105.427 91.8762 105.273 91.9415C105.123 92.0068 104.993 92.0978 104.881 92.2144C104.769 92.3263 104.68 92.4593 104.615 92.6132C104.55 92.7624 104.517 92.9234 104.517 93.0959V93.3968C104.517 93.5693 104.55 93.7326 104.615 93.8865C104.68 94.0358 104.769 94.1664 104.881 94.2783C104.993 94.3902 105.123 94.4789 105.273 94.5442C105.427 94.6095 105.59 94.6421 105.762 94.6421H106.336C106.509 94.6421 106.67 94.6095 106.819 94.5442C106.973 94.4789 107.106 94.3902 107.218 94.2783C107.33 94.1664 107.418 94.0358 107.484 93.8865C107.549 93.7326 107.581 93.5693 107.581 93.3968V91.8436ZM110.45 95.3138V85.2811H111.311V95.3138H110.45ZM115.935 95.3138C115.674 95.3138 115.427 95.2648 115.193 95.1668C114.965 95.0689 114.764 94.9336 114.592 94.7611C114.424 94.5885 114.289 94.3879 114.186 94.1594C114.088 93.9308 114.039 93.686 114.039 93.4248V88.9681H112.752V88.1495H114.039V86.4284L114.9 86.2885V88.1495H116.719V88.9681H114.9V93.4667C114.9 93.6113 114.925 93.7466 114.977 93.8725C115.033 93.9938 115.107 94.1011 115.2 94.1943C115.294 94.2876 115.403 94.3623 115.529 94.4182C115.655 94.4695 115.79 94.4952 115.935 94.4952H116.719V95.3138H115.935ZM122.232 95.3138V90.0665C122.232 89.894 122.199 89.733 122.134 89.5838C122.069 89.4299 121.98 89.2969 121.868 89.185C121.756 89.0731 121.623 88.9844 121.469 88.9191C121.32 88.8538 121.159 88.8212 120.986 88.8212H120.413C120.24 88.8212 120.077 88.8538 119.923 88.9191C119.774 88.9844 119.643 89.0731 119.531 89.185C119.419 89.2969 119.331 89.4299 119.265 89.5838C119.2 89.733 119.167 89.894 119.167 90.0665V95.3138H118.307V85.2811H119.167V88.7512C119.363 88.518 119.599 88.3361 119.874 88.2055C120.149 88.0749 120.448 88.0096 120.77 88.0096H120.986C121.276 88.0096 121.548 88.0656 121.805 88.1775C122.062 88.2848 122.285 88.4341 122.477 88.6253C122.668 88.8165 122.817 89.0404 122.924 89.2969C123.036 89.5535 123.092 89.8263 123.092 90.1155V95.3138H122.232ZM129.599 93.3478C129.599 93.637 129.543 93.9098 129.431 94.1664C129.324 94.4229 129.174 94.6468 128.983 94.838C128.792 95.0292 128.568 95.1808 128.312 95.2928C128.055 95.4 127.782 95.4537 127.493 95.4537H126.919C126.63 95.4537 126.357 95.4 126.101 95.2928C125.844 95.1808 125.62 95.0292 125.429 94.838C125.238 94.6468 125.086 94.4229 124.974 94.1664C124.867 93.9098 124.813 93.637 124.813 93.3478V90.1155C124.813 89.8263 124.867 89.5535 124.974 89.2969C125.086 89.0404 125.238 88.8165 125.429 88.6253C125.62 88.4341 125.844 88.2848 126.101 88.1775C126.357 88.0656 126.63 88.0096 126.919 88.0096H127.493C127.782 88.0096 128.055 88.0656 128.312 88.1775C128.568 88.2848 128.792 88.4341 128.983 88.6253C129.174 88.8165 129.324 89.0404 129.431 89.2969C129.543 89.5535 129.599 89.8263 129.599 90.1155V90.4024L128.738 90.5423V90.0665C128.738 89.894 128.706 89.733 128.64 89.5838C128.575 89.4299 128.486 89.2969 128.375 89.185C128.263 89.0731 128.13 88.9844 127.976 88.9191C127.826 88.8538 127.666 88.8212 127.493 88.8212H126.919C126.747 88.8212 126.583 88.8538 126.43 88.9191C126.28 88.9844 126.15 89.0731 126.038 89.185C125.926 89.2969 125.837 89.4299 125.772 89.5838C125.707 89.733 125.674 89.894 125.674 90.0665V93.3968C125.674 93.5693 125.707 93.7326 125.772 93.8865C125.837 94.0358 125.926 94.1664 126.038 94.2783C126.15 94.3902 126.28 94.4789 126.43 94.5442C126.583 94.6095 126.747 94.6421 126.919 94.6421H127.493C127.666 94.6421 127.826 94.6095 127.976 94.5442C128.13 94.4789 128.263 94.3902 128.375 94.2783C128.486 94.1664 128.575 94.0358 128.64 93.8865C128.706 93.7326 128.738 93.5693 128.738 93.3968V92.921L129.599 93.0609V93.3478ZM135.819 95.3138L135.343 94.6001C135.147 94.8567 134.902 95.0642 134.608 95.2228C134.314 95.3767 133.993 95.4537 133.643 95.4537H133.426C133.137 95.4537 132.864 95.4 132.607 95.2928C132.351 95.1808 132.127 95.0292 131.936 94.838C131.744 94.6468 131.593 94.4229 131.481 94.1664C131.374 93.9098 131.32 93.637 131.32 93.3478V93.2778C131.32 92.9887 131.374 92.7158 131.481 92.4593C131.593 92.2027 131.744 91.9789 131.936 91.7876C132.127 91.5964 132.351 91.4471 132.607 91.3399C132.864 91.2279 133.137 91.1719 133.426 91.1719H135.245V90.0665C135.245 89.894 135.212 89.733 135.147 89.5838C135.082 89.4299 134.993 89.2969 134.881 89.185C134.769 89.0731 134.636 88.9844 134.482 88.9191C134.333 88.8538 134.172 88.8212 134 88.8212H133.496C133.323 88.8212 133.16 88.8538 133.006 88.9191C132.857 88.9844 132.726 89.0731 132.614 89.185C132.502 89.2969 132.414 89.4299 132.348 89.5838C132.283 89.733 132.25 89.894 132.25 90.0665V90.3254L131.39 90.1855V90.1155C131.39 89.8263 131.444 89.5535 131.551 89.2969C131.663 89.0404 131.814 88.8165 132.006 88.6253C132.197 88.4341 132.421 88.2848 132.677 88.1775C132.934 88.0656 133.207 88.0096 133.496 88.0096H134C134.289 88.0096 134.562 88.0656 134.818 88.1775C135.075 88.2848 135.299 88.4341 135.49 88.6253C135.681 88.8165 135.83 89.0404 135.938 89.2969C136.049 89.5535 136.105 89.8263 136.105 90.1155V95.3138H135.819ZM135.245 91.8436H133.426C133.253 91.8436 133.09 91.8762 132.936 91.9415C132.787 92.0068 132.656 92.0978 132.544 92.2144C132.432 92.3263 132.344 92.4593 132.278 92.6132C132.213 92.7624 132.181 92.9234 132.181 93.0959V93.3968C132.181 93.5693 132.213 93.7326 132.278 93.8865C132.344 94.0358 132.432 94.1664 132.544 94.2783C132.656 94.3902 132.787 94.4789 132.936 94.5442C133.09 94.6095 133.253 94.6421 133.426 94.6421H134C134.172 94.6421 134.333 94.6095 134.482 94.5442C134.636 94.4789 134.769 94.3902 134.881 94.2783C134.993 94.1664 135.082 94.0358 135.147 93.8865C135.212 93.7326 135.245 93.5693 135.245 93.3968V91.8436ZM139.932 88.9681C139.76 88.9681 139.597 89.0008 139.443 89.0661C139.293 89.1314 139.163 89.22 139.051 89.3319C138.939 89.4439 138.85 89.5768 138.785 89.7307C138.72 89.88 138.687 90.0409 138.687 90.2135V95.3138H137.827V88.1495H138.113L138.582 88.8772C138.778 88.6113 139.023 88.4014 139.317 88.2475C139.615 88.0889 139.939 88.0096 140.289 88.0096H140.793V88.9681H139.932ZM146.726 93.3478C146.726 93.637 146.67 93.9098 146.558 94.1664C146.451 94.4229 146.301 94.6468 146.11 94.838C145.919 95.0292 145.695 95.1808 145.439 95.2928C145.182 95.4 144.909 95.4537 144.62 95.4537H144.046C143.757 95.4537 143.484 95.4 143.228 95.2928C142.971 95.1808 142.747 95.0292 142.556 94.838C142.365 94.6468 142.213 94.4229 142.101 94.1664C141.994 93.9098 141.94 93.637 141.94 93.3478V90.1155C141.94 89.8263 141.994 89.5535 142.101 89.2969C142.213 89.0404 142.365 88.8165 142.556 88.6253C142.747 88.4341 142.971 88.2848 143.228 88.1775C143.484 88.0656 143.757 88.0096 144.046 88.0096H144.62C144.909 88.0096 145.182 88.0656 145.439 88.1775C145.695 88.2848 145.919 88.4341 146.11 88.6253C146.301 88.8165 146.451 89.0404 146.558 89.2969C146.67 89.5535 146.726 89.8263 146.726 90.1155V91.8016H142.801V93.3968C142.801 93.5693 142.834 93.7326 142.899 93.8865C142.964 94.0358 143.053 94.1664 143.165 94.2783C143.277 94.3902 143.407 94.4789 143.556 94.5442C143.71 94.6095 143.874 94.6421 144.046 94.6421H144.62C144.793 94.6421 144.953 94.6095 145.103 94.5442C145.257 94.4789 145.39 94.3902 145.501 94.2783C145.613 94.1664 145.702 94.0358 145.767 93.8865C145.833 93.7326 145.865 93.5693 145.865 93.3968V92.921L146.726 93.0609V93.3478ZM145.865 90.0665C145.865 89.894 145.833 89.733 145.767 89.5838C145.702 89.4299 145.613 89.2969 145.501 89.185C145.39 89.0731 145.257 88.9844 145.103 88.9191C144.953 88.8538 144.793 88.8212 144.62 88.8212H144.046C143.874 88.8212 143.71 88.8538 143.556 88.9191C143.407 88.9844 143.277 89.0731 143.165 89.185C143.053 89.2969 142.964 89.4299 142.899 89.5838C142.834 89.733 142.801 89.894 142.801 90.0665V91.13H145.865V90.0665ZM159.312 95.3138V90.0665C159.312 89.894 159.28 89.733 159.214 89.5838C159.149 89.4299 159.06 89.2969 158.948 89.185C158.836 89.0731 158.704 88.9844 158.55 88.9191C158.4 88.8538 158.239 88.8212 158.067 88.8212H157.64C157.467 88.8212 157.304 88.8538 157.15 88.9191C157.001 88.9844 156.868 89.0731 156.752 89.185C156.64 89.2969 156.551 89.4299 156.486 89.5838C156.42 89.733 156.388 89.894 156.388 90.0665V95.3138H155.534V90.0665C155.534 89.894 155.502 89.733 155.436 89.5838C155.371 89.4299 155.28 89.2969 155.163 89.185C155.051 89.0731 154.918 88.9844 154.765 88.9191C154.615 88.8538 154.454 88.8212 154.282 88.8212H153.855C153.682 88.8212 153.519 88.8538 153.365 88.9191C153.216 88.9844 153.085 89.0731 152.974 89.185C152.862 89.2969 152.773 89.4299 152.708 89.5838C152.642 89.733 152.61 89.894 152.61 90.0665V95.3138H151.749V88.1495H152.036L152.505 88.8772C152.701 88.6113 152.946 88.4014 153.239 88.2475C153.538 88.0889 153.862 88.0096 154.212 88.0096H154.282C154.688 88.0096 155.054 88.1099 155.38 88.3105C155.707 88.511 155.959 88.7769 156.136 89.108C156.224 88.9448 156.334 88.7955 156.465 88.6603C156.595 88.525 156.74 88.4107 156.898 88.3175C157.057 88.2195 157.23 88.1449 157.416 88.0936C157.603 88.0376 157.796 88.0096 157.997 88.0096H158.067C158.356 88.0096 158.629 88.0656 158.885 88.1775C159.142 88.2848 159.366 88.4341 159.557 88.6253C159.748 88.8165 159.898 89.0404 160.005 89.2969C160.117 89.5535 160.173 89.8263 160.173 90.1155V95.3138H159.312ZM166.392 95.3138L165.917 94.6001C165.721 94.8567 165.476 95.0642 165.182 95.2228C164.888 95.3767 164.566 95.4537 164.217 95.4537H164C163.711 95.4537 163.438 95.4 163.181 95.2928C162.925 95.1808 162.701 95.0292 162.509 94.838C162.318 94.6468 162.167 94.4229 162.055 94.1664C161.947 93.9098 161.894 93.637 161.894 93.3478V93.2778C161.894 92.9887 161.947 92.7158 162.055 92.4593C162.167 92.2027 162.318 91.9789 162.509 91.7876C162.701 91.5964 162.925 91.4471 163.181 91.3399C163.438 91.2279 163.711 91.1719 164 91.1719H165.819V90.0665C165.819 89.894 165.786 89.733 165.721 89.5838C165.655 89.4299 165.567 89.2969 165.455 89.185C165.343 89.0731 165.21 88.9844 165.056 88.9191C164.907 88.8538 164.746 88.8212 164.573 88.8212H164.07C163.897 88.8212 163.734 88.8538 163.58 88.9191C163.431 88.9844 163.3 89.0731 163.188 89.185C163.076 89.2969 162.988 89.4299 162.922 89.5838C162.857 89.733 162.824 89.894 162.824 90.0665V90.3254L161.964 90.1855V90.1155C161.964 89.8263 162.017 89.5535 162.125 89.2969C162.237 89.0404 162.388 88.8165 162.579 88.6253C162.771 88.4341 162.995 88.2848 163.251 88.1775C163.508 88.0656 163.78 88.0096 164.07 88.0096H164.573C164.863 88.0096 165.135 88.0656 165.392 88.1775C165.649 88.2848 165.872 88.4341 166.064 88.6253C166.255 88.8165 166.404 89.0404 166.511 89.2969C166.623 89.5535 166.679 89.8263 166.679 90.1155V95.3138H166.392ZM165.819 91.8436H164C163.827 91.8436 163.664 91.8762 163.51 91.9415C163.361 92.0068 163.23 92.0978 163.118 92.2144C163.006 92.3263 162.918 92.4593 162.852 92.6132C162.787 92.7624 162.754 92.9234 162.754 93.0959V93.3968C162.754 93.5693 162.787 93.7326 162.852 93.8865C162.918 94.0358 163.006 94.1664 163.118 94.2783C163.23 94.3902 163.361 94.4789 163.51 94.5442C163.664 94.6095 163.827 94.6421 164 94.6421H164.573C164.746 94.6421 164.907 94.6095 165.056 94.5442C165.21 94.4789 165.343 94.3902 165.455 94.2783C165.567 94.1664 165.655 94.0358 165.721 93.8865C165.786 93.7326 165.819 93.5693 165.819 93.3968V91.8436ZM172.899 95.3138L172.423 94.5861C172.227 94.852 171.982 95.0642 171.689 95.2228C171.395 95.3767 171.073 95.4537 170.723 95.4537H170.506C170.217 95.4537 169.944 95.4 169.688 95.2928C169.431 95.1808 169.207 95.0292 169.016 94.838C168.825 94.6468 168.673 94.4229 168.561 94.1664C168.454 93.9098 168.4 93.637 168.4 93.3478V90.1155C168.4 89.8263 168.454 89.5535 168.561 89.2969C168.673 89.0404 168.825 88.8165 169.016 88.6253C169.207 88.4341 169.431 88.2848 169.688 88.1775C169.944 88.0656 170.217 88.0096 170.506 88.0096H170.723C171.045 88.0096 171.343 88.0749 171.619 88.2055C171.894 88.3361 172.129 88.518 172.325 88.7512V85.2811H173.186V95.3138H172.899ZM172.325 90.0665C172.325 89.894 172.293 89.733 172.227 89.5838C172.162 89.4299 172.073 89.2969 171.962 89.185C171.85 89.0731 171.717 88.9844 171.563 88.9191C171.413 88.8538 171.253 88.8212 171.08 88.8212H170.506C170.334 88.8212 170.17 88.8538 170.017 88.9191C169.867 88.9844 169.737 89.0731 169.625 89.185C169.513 89.2969 169.424 89.4299 169.359 89.5838C169.294 89.733 169.261 89.894 169.261 90.0665V93.3968C169.261 93.5693 169.294 93.7326 169.359 93.8865C169.424 94.0358 169.513 94.1664 169.625 94.2783C169.737 94.3902 169.867 94.4789 170.017 94.5442C170.17 94.6095 170.334 94.6421 170.506 94.6421H171.08C171.253 94.6421 171.413 94.6095 171.563 94.5442C171.717 94.4789 171.85 94.3902 171.962 94.2783C172.073 94.1664 172.162 94.0358 172.227 93.8865C172.293 93.7326 172.325 93.5693 172.325 93.3968V90.0665ZM179.692 93.3478C179.692 93.637 179.636 93.9098 179.525 94.1664C179.417 94.4229 179.268 94.6468 179.077 94.838C178.886 95.0292 178.662 95.1808 178.405 95.2928C178.149 95.4 177.876 95.4537 177.587 95.4537H177.013C176.724 95.4537 176.451 95.4 176.194 95.2928C175.938 95.1808 175.714 95.0292 175.523 94.838C175.331 94.6468 175.18 94.4229 175.068 94.1664C174.961 93.9098 174.907 93.637 174.907 93.3478V90.1155C174.907 89.8263 174.961 89.5535 175.068 89.2969C175.18 89.0404 175.331 88.8165 175.523 88.6253C175.714 88.4341 175.938 88.2848 176.194 88.1775C176.451 88.0656 176.724 88.0096 177.013 88.0096H177.587C177.876 88.0096 178.149 88.0656 178.405 88.1775C178.662 88.2848 178.886 88.4341 179.077 88.6253C179.268 88.8165 179.417 89.0404 179.525 89.2969C179.636 89.5535 179.692 89.8263 179.692 90.1155V91.8016H175.767V93.3968C175.767 93.5693 175.8 93.7326 175.865 93.8865C175.931 94.0358 176.019 94.1664 176.131 94.2783C176.243 94.3902 176.374 94.4789 176.523 94.5442C176.677 94.6095 176.84 94.6421 177.013 94.6421H177.587C177.759 94.6421 177.92 94.6095 178.069 94.5442C178.223 94.4789 178.356 94.3902 178.468 94.2783C178.58 94.1664 178.669 94.0358 178.734 93.8865C178.799 93.7326 178.832 93.5693 178.832 93.3968V92.921L179.692 93.0609V93.3478ZM178.832 90.0665C178.832 89.894 178.799 89.733 178.734 89.5838C178.669 89.4299 178.58 89.2969 178.468 89.185C178.356 89.0731 178.223 88.9844 178.069 88.9191C177.92 88.8538 177.759 88.8212 177.587 88.8212H177.013C176.84 88.8212 176.677 88.8538 176.523 88.9191C176.374 88.9844 176.243 89.0731 176.131 89.185C176.019 89.2969 175.931 89.4299 175.865 89.5838C175.8 89.733 175.767 89.894 175.767 90.0665V91.13H178.832V90.0665ZM189.641 93.4947C189.641 93.7839 189.583 94.0498 189.466 94.2923C189.35 94.5302 189.191 94.7354 188.991 94.908C188.79 95.0805 188.557 95.2158 188.291 95.3138C188.03 95.407 187.754 95.4537 187.465 95.4537H186.892C186.602 95.4537 186.325 95.4 186.059 95.2928C185.798 95.1808 185.567 95.0292 185.366 94.838C185.171 94.6468 185.012 94.4229 184.891 94.1664C184.774 93.9098 184.716 93.637 184.716 93.3478V93.0609L185.576 92.921V93.3968C185.576 93.5693 185.611 93.7326 185.681 93.8865C185.756 94.0358 185.854 94.1664 185.975 94.2783C186.096 94.3902 186.236 94.4789 186.395 94.5442C186.553 94.6095 186.719 94.6421 186.892 94.6421H187.465C187.638 94.6421 187.803 94.6165 187.962 94.5652C188.121 94.5138 188.261 94.4416 188.382 94.3483C188.508 94.2503 188.606 94.1337 188.676 93.9985C188.75 93.8632 188.788 93.7093 188.788 93.5367C188.788 93.2802 188.732 93.0703 188.62 92.907C188.508 92.7438 188.359 92.6085 188.172 92.5012C187.99 92.3893 187.78 92.2984 187.542 92.2284C187.309 92.1538 187.069 92.0815 186.822 92.0115C186.574 91.9369 186.332 91.8529 186.094 91.7596C185.861 91.6664 185.651 91.5451 185.464 91.3958C185.282 91.2419 185.136 91.0507 185.024 90.8221C184.912 90.5936 184.856 90.3091 184.856 89.9686C184.856 89.6794 184.912 89.4159 185.024 89.178C185.136 88.9355 185.287 88.7279 185.478 88.5553C185.67 88.3828 185.891 88.2498 186.143 88.1565C186.4 88.0586 186.672 88.0096 186.962 88.0096H187.465C187.754 88.0096 188.027 88.0656 188.284 88.1775C188.54 88.2848 188.764 88.4341 188.956 88.6253C189.147 88.8165 189.296 89.0404 189.403 89.2969C189.515 89.5535 189.571 89.8263 189.571 90.1155V90.1435L188.711 90.2834V90.0665C188.711 89.894 188.678 89.733 188.613 89.5838C188.547 89.4299 188.459 89.2969 188.347 89.185C188.235 89.0731 188.102 88.9844 187.948 88.9191C187.799 88.8538 187.638 88.8212 187.465 88.8212H186.962C186.789 88.8212 186.626 88.8468 186.472 88.8981C186.323 88.9495 186.192 89.0241 186.08 89.122C185.968 89.2153 185.879 89.3296 185.814 89.4648C185.749 89.6001 185.716 89.754 185.716 89.9266C185.716 90.1738 185.772 90.3767 185.884 90.5353C185.996 90.6892 186.143 90.8198 186.325 90.9271C186.511 91.0344 186.721 91.1253 186.955 91.1999C187.192 91.2699 187.433 91.3445 187.675 91.4238C187.922 91.4984 188.163 91.5847 188.396 91.6827C188.634 91.7806 188.844 91.9066 189.025 92.0605C189.212 92.2144 189.361 92.408 189.473 92.6412C189.585 92.8697 189.641 93.1542 189.641 93.4947ZM191.509 86.4284V85.2811H192.51V86.4284H191.509ZM191.579 95.3138V88.1495H192.44V95.3138H191.579ZM202.018 95.3138V90.0665C202.018 89.894 201.985 89.733 201.92 89.5838C201.854 89.4299 201.766 89.2969 201.654 89.185C201.542 89.0731 201.409 88.9844 201.255 88.9191C201.106 88.8538 200.945 88.8212 200.772 88.8212H200.346C200.173 88.8212 200.01 88.8538 199.856 88.9191C199.707 88.9844 199.574 89.0731 199.457 89.185C199.345 89.2969 199.256 89.4299 199.191 89.5838C199.126 89.733 199.093 89.894 199.093 90.0665V95.3138H198.24V90.0665C198.24 89.894 198.207 89.733 198.142 89.5838C198.076 89.4299 197.985 89.2969 197.869 89.185C197.757 89.0731 197.624 88.9844 197.47 88.9191C197.321 88.8538 197.16 88.8212 196.987 88.8212H196.561C196.388 88.8212 196.225 88.8538 196.071 88.9191C195.922 88.9844 195.791 89.0731 195.679 89.185C195.567 89.2969 195.478 89.4299 195.413 89.5838C195.348 89.733 195.315 89.894 195.315 90.0665V95.3138H194.455V88.1495H194.741L195.21 88.8772C195.406 88.6113 195.651 88.4014 195.945 88.2475C196.243 88.0889 196.568 88.0096 196.917 88.0096H196.987C197.393 88.0096 197.759 88.1099 198.086 88.3105C198.412 88.511 198.664 88.7769 198.841 89.108C198.93 88.9448 199.04 88.7955 199.17 88.6603C199.301 88.525 199.445 88.4107 199.604 88.3175C199.762 88.2195 199.935 88.1449 200.122 88.0936C200.308 88.0376 200.502 88.0096 200.702 88.0096H200.772C201.061 88.0096 201.334 88.0656 201.591 88.1775C201.847 88.2848 202.071 88.4341 202.263 88.6253C202.454 88.8165 202.603 89.0404 202.71 89.2969C202.822 89.5535 202.878 89.8263 202.878 90.1155V95.3138H202.018ZM209.385 93.3478C209.385 93.637 209.329 93.9098 209.217 94.1664C209.11 94.4229 208.96 94.6468 208.769 94.838C208.578 95.0292 208.354 95.1808 208.097 95.2928C207.841 95.4 207.568 95.4537 207.279 95.4537H207.062C206.74 95.4537 206.442 95.3884 206.166 95.2578C205.891 95.1272 205.656 94.9453 205.46 94.7121V98.1822H204.599V88.1495H204.886L205.355 88.8772C205.551 88.6113 205.796 88.4014 206.089 88.2475C206.388 88.0889 206.712 88.0096 207.062 88.0096H207.279C207.568 88.0096 207.841 88.0656 208.097 88.1775C208.354 88.2848 208.578 88.4341 208.769 88.6253C208.96 88.8165 209.11 89.0404 209.217 89.2969C209.329 89.5535 209.385 89.8263 209.385 90.1155V93.3478ZM208.524 90.0665C208.524 89.894 208.492 89.733 208.426 89.5838C208.361 89.4299 208.272 89.2969 208.16 89.185C208.048 89.0731 207.916 88.9844 207.762 88.9191C207.612 88.8538 207.451 88.8212 207.279 88.8212H206.705C206.533 88.8212 206.369 88.8538 206.215 88.9191C206.066 88.9844 205.936 89.0731 205.824 89.185C205.712 89.2969 205.623 89.4299 205.558 89.5838C205.492 89.733 205.46 89.894 205.46 90.0665V93.3968C205.46 93.5693 205.492 93.7326 205.558 93.8865C205.623 94.0358 205.712 94.1664 205.824 94.2783C205.936 94.3902 206.066 94.4789 206.215 94.5442C206.369 94.6095 206.533 94.6421 206.705 94.6421H207.279C207.451 94.6421 207.612 94.6095 207.762 94.5442C207.916 94.4789 208.048 94.3902 208.16 94.2783C208.272 94.1664 208.361 94.0358 208.426 93.8865C208.492 93.7326 208.524 93.5693 208.524 93.3968V90.0665ZM211.393 95.3138V85.2811H212.253V95.3138H211.393ZM219.054 93.3478C219.054 93.637 218.998 93.9098 218.886 94.1664C218.778 94.4229 218.629 94.6468 218.438 94.838C218.247 95.0292 218.023 95.1808 217.766 95.2928C217.51 95.4 217.237 95.4537 216.948 95.4537H216.374C216.085 95.4537 215.812 95.4 215.555 95.2928C215.299 95.1808 215.075 95.0292 214.884 94.838C214.693 94.6468 214.541 94.4229 214.429 94.1664C214.322 93.9098 214.268 93.637 214.268 93.3478V90.1155C214.268 89.8263 214.322 89.5535 214.429 89.2969C214.541 89.0404 214.693 88.8165 214.884 88.6253C215.075 88.4341 215.299 88.2848 215.555 88.1775C215.812 88.0656 216.085 88.0096 216.374 88.0096H216.948C217.237 88.0096 217.51 88.0656 217.766 88.1775C218.023 88.2848 218.247 88.4341 218.438 88.6253C218.629 88.8165 218.778 89.0404 218.886 89.2969C218.998 89.5535 219.054 89.8263 219.054 90.1155V91.8016H215.129V93.3968C215.129 93.5693 215.161 93.7326 215.227 93.8865C215.292 94.0358 215.381 94.1664 215.493 94.2783C215.604 94.3902 215.735 94.4789 215.884 94.5442C216.038 94.6095 216.201 94.6421 216.374 94.6421H216.948C217.12 94.6421 217.281 94.6095 217.431 94.5442C217.584 94.4789 217.717 94.3902 217.829 94.2783C217.941 94.1664 218.03 94.0358 218.095 93.8865C218.16 93.7326 218.193 93.5693 218.193 93.3968V92.921L219.054 93.0609V93.3478ZM218.193 90.0665C218.193 89.894 218.16 89.733 218.095 89.5838C218.03 89.4299 217.941 89.2969 217.829 89.185C217.717 89.0731 217.584 88.9844 217.431 88.9191C217.281 88.8538 217.12 88.8212 216.948 88.8212H216.374C216.201 88.8212 216.038 88.8538 215.884 88.9191C215.735 88.9844 215.604 89.0731 215.493 89.185C215.381 89.2969 215.292 89.4299 215.227 89.5838C215.161 89.733 215.129 89.894 215.129 90.0665V91.13H218.193V90.0665ZM220.775 95.3138V94.2363H221.852V95.3138H220.775Z" fill="white"/>
</svg>
