<svg width="531" height="172" viewBox="0 0 531 172" fill="none" xmlns="http://www.w3.org/2000/svg">
<path d="M28.9379 93.1494V38.8415H31.8926V93.1494H28.9379ZM34.8473 93.1494V38.8415H37.802V93.1494H34.8473ZM40.7567 93.1494V38.8415H49.6209V93.1494H40.7567ZM52.5756 93.1494V38.8415H61.4397V93.1494H52.5756ZM70.304 93.1494V38.8415H73.2587V93.1494H70.304ZM50.9998 103.275H44.5979V101.158H60.3564V103.275H53.6589V122.512H50.9998V103.275ZM76.2594 93.1494V38.8415H85.1237V93.1494H76.2594ZM88.0784 93.1494V38.8415H91.0331V93.1494H88.0784ZM93.9878 93.1494V38.8415H96.9425V93.1494H93.9878ZM105.807 93.1494V38.8415H114.671V93.1494H105.807ZM117.626 93.1494V38.8415H120.58V93.1494H117.626ZM92.6089 101.158H95.5636V101.434C95.4323 101.556 95.3338 101.71 95.2682 101.894C95.2682 102.017 95.2682 102.293 95.2682 102.722V110.27H104.132V101.158H107.186V101.434C107.054 101.556 106.956 101.71 106.89 101.894C106.89 102.017 106.89 102.293 106.89 102.722V122.512H104.132V112.387H95.2682V122.512H92.6089V101.158ZM123.581 93.1494V38.8415H132.445V93.1494H123.581ZM135.4 93.1494V38.8415H138.355V93.1494H135.4ZM141.31 93.1494V38.8415H150.174V93.1494H141.31ZM159.038 93.1494V38.8415H161.993V93.1494H159.038ZM164.947 93.1494V38.8415H167.902V93.1494H164.947ZM140.226 101.158H154.212V103.275H142.59V110.27H152.242V112.479H142.59V120.395H154.113V122.512H140.226V101.158ZM170.903 93.1494V38.8415H173.857V93.1494H170.903ZM182.723 93.1494V38.8415H191.586V93.1494H182.723ZM194.54 93.1494V38.8415H197.496V93.1494H194.54ZM200.45 93.1494V38.8415H209.314V93.1494H200.45ZM212.27 93.1494V38.8415H215.223V93.1494H212.27ZM218.224 93.1494V38.8415H227.089V93.1494H218.224ZM230.043 93.1494V38.8415H238.907V93.1494H230.043ZM241.863 93.1494V38.8415H244.817V93.1494H241.863ZM253.681 93.1494V38.8415H256.636V93.1494H253.681ZM259.59 93.1494V38.8415H262.546V93.1494H259.59ZM243.143 122.881C241.435 122.881 239.924 122.482 238.612 121.684C237.233 120.886 236.149 119.69 235.362 118.094C234.573 116.437 234.18 114.382 234.18 111.927C234.18 109.35 234.608 107.233 235.46 105.576C236.314 103.98 237.397 102.814 238.711 102.078C240.024 101.403 241.435 101.065 242.945 101.065C244.587 101.065 245.999 101.434 247.181 102.17C248.362 102.906 249.249 103.919 249.84 105.208L247.673 106.22L247.377 106.312L247.279 106.128V105.852C247.279 105.607 247.114 105.269 246.786 104.839C246.262 104.164 245.671 103.674 245.014 103.367C244.358 103.06 243.667 102.906 242.945 102.906C240.976 102.906 239.433 103.704 238.316 105.3C237.266 106.834 236.74 109.012 236.74 111.835C236.74 113.553 237.003 115.118 237.529 116.529C238.12 117.879 238.874 118.923 239.794 119.659C240.779 120.395 241.863 120.764 243.043 120.764C243.963 120.764 244.817 120.549 245.606 120.119C246.458 119.628 247.147 118.984 247.673 118.186L249.544 119.383C248.757 120.549 247.871 121.408 246.886 121.96C245.834 122.574 244.587 122.881 243.143 122.881ZM265.546 93.1494V38.8415H268.5V93.1494H265.546ZM271.456 93.1494V38.8415H280.32V93.1494H271.456ZM283.274 93.1494V38.8415H286.23V93.1494H283.274ZM289.184 93.1494V38.8415H292.139V93.1494H289.184ZM301.003 93.1494V38.8415H309.867V93.1494H301.003ZM282.487 101.158H285.441V101.434C285.31 101.556 285.211 101.71 285.145 101.894C285.145 102.017 285.145 102.293 285.145 102.722V120.487H296.078V122.512H282.487V101.158ZM312.867 93.1494V38.8415H315.823V93.1494H312.867ZM318.777 93.1494V38.8415H327.641V93.1494H318.777ZM330.597 93.1494V38.8415H333.551V93.1494H330.597ZM342.414 93.1494V38.8415H351.28V93.1494H342.414ZM354.234 93.1494V38.8415H357.188V93.1494H354.234ZM330.301 120.487H334.831V103.183H330.597V101.158H341.923V103.183H337.391V120.487H342.119V122.512H330.301V120.487ZM360.19 93.1494V38.8415H363.144V93.1494H360.19ZM366.1 93.1494V38.8415H369.054V93.1494H366.1ZM372.008 93.1494V38.8415H380.873V93.1494H372.008ZM383.827 93.1494V38.8415H386.781V93.1494H383.827ZM395.647 93.1494V38.8415H404.51V93.1494H395.647ZM376.539 101.158H379.002L388.555 116.99V101.158H391.411V101.434C391.215 101.556 391.115 101.71 391.115 101.894C391.05 102.017 391.017 102.293 391.017 102.722V122.512H389.048L378.902 105.76V122.512H376.539V101.158ZM407.511 93.1494V38.8415H410.467V93.1494H407.511ZM413.421 93.1494V38.8415H422.284V93.1494H413.421ZM425.24 93.1494V38.8415H428.194V93.1494H425.24ZM437.058 93.1494V38.8415H445.923V93.1494H437.058ZM448.877 93.1494V38.8415H451.831V93.1494H448.877ZM424.944 120.487H429.474V103.183H425.24V101.158H436.566V103.183H432.035V120.487H436.762V122.512H424.944V120.487ZM454.833 93.1494V38.8415H463.697V93.1494H454.833ZM466.651 93.1494V38.8415H475.517V93.1494H466.651ZM478.471 93.1494V38.8415H481.425V93.1494H478.471ZM490.29 93.1494V38.8415H493.244V93.1494H490.29ZM496.198 93.1494V38.8415H499.154V93.1494H496.198ZM479.751 122.881C478.044 122.881 476.534 122.482 475.221 121.684C473.841 120.886 472.758 119.69 471.97 118.094C471.183 116.437 470.787 114.382 470.787 111.927C470.787 109.35 471.215 107.233 472.069 105.576C472.922 103.98 474.006 102.814 475.319 102.078C476.632 101.403 478.044 101.065 479.553 101.065C481.196 101.065 482.607 101.434 483.789 102.17C484.972 102.906 485.857 103.919 486.448 105.208L484.281 106.22L483.987 106.312L483.887 106.128V105.852C483.887 105.607 483.724 105.269 483.396 104.839C482.87 104.164 482.279 103.674 481.622 103.367C480.966 103.06 480.277 102.906 479.553 102.906C477.584 102.906 476.041 103.704 474.925 105.3C473.874 106.834 473.35 109.012 473.35 111.835C473.35 113.553 473.611 115.118 474.137 116.529C474.728 117.879 475.482 118.923 476.402 119.659C477.386 120.395 478.471 120.764 479.653 120.764C480.572 120.764 481.425 120.549 482.213 120.119C483.067 119.628 483.757 118.984 484.281 118.186L486.152 119.383C485.365 120.549 484.478 121.408 483.494 121.96C482.444 122.574 481.196 122.881 479.751 122.881Z" fill="#9E9E9E"/>
<path d="M162.174 153.076V145.717H155.574V153.076H154.023V136.964H155.574V144.334H162.174V136.964H163.725V153.076H162.174ZM175.17 149.919C175.17 150.383 175.074 150.821 174.883 151.234C174.697 151.645 174.441 152.005 174.113 152.312C173.785 152.619 173.4 152.863 172.958 153.043C172.518 153.215 172.049 153.301 171.552 153.301H170.566C170.069 153.301 169.6 153.215 169.159 153.043C168.719 152.863 168.334 152.619 168.005 152.312C167.677 152.005 167.416 151.645 167.224 151.234C167.039 150.821 166.947 150.383 166.947 149.919V144.728C166.947 144.263 167.039 143.825 167.224 143.413C167.416 143.001 167.677 142.641 168.005 142.334C168.334 142.027 168.719 141.788 169.159 141.615C169.6 141.435 170.069 141.346 170.566 141.346H171.552C172.049 141.346 172.518 141.435 172.958 141.615C173.4 141.788 173.785 142.027 174.113 142.334C174.441 142.641 174.697 143.001 174.883 143.413C175.074 143.825 175.17 144.263 175.17 144.728V147.436H168.426V149.998C168.426 150.275 168.482 150.537 168.594 150.784C168.707 151.024 168.859 151.234 169.051 151.413C169.244 151.593 169.468 151.735 169.724 151.84C169.989 151.945 170.269 151.997 170.566 151.997H171.552C171.848 151.997 172.125 151.945 172.381 151.84C172.646 151.735 172.874 151.593 173.067 151.413C173.259 151.234 173.412 151.024 173.524 150.784C173.635 150.537 173.692 150.275 173.692 149.998V149.233L175.17 149.458V149.919ZM173.692 144.649C173.692 144.372 173.635 144.113 173.524 143.874C173.412 143.627 173.259 143.413 173.067 143.233C172.874 143.054 172.646 142.911 172.381 142.806C172.125 142.701 171.848 142.649 171.552 142.649H170.566C170.269 142.649 169.989 142.701 169.724 142.806C169.468 142.911 169.244 143.054 169.051 143.233C168.859 143.413 168.707 143.627 168.594 143.874C168.482 144.113 168.426 144.372 168.426 144.649V146.357H173.692V144.649ZM185.859 153.076L185.041 151.93C184.706 152.342 184.285 152.675 183.779 152.93C183.274 153.177 182.721 153.301 182.119 153.301H181.746C181.25 153.301 180.781 153.215 180.341 153.043C179.899 152.863 179.514 152.619 179.186 152.312C178.858 152.005 178.597 151.645 178.404 151.234C178.22 150.821 178.129 150.383 178.129 149.919V149.806C178.129 149.342 178.22 148.904 178.404 148.492C178.597 148.08 178.858 147.72 179.186 147.413C179.514 147.106 179.899 146.866 180.341 146.694C180.781 146.514 181.25 146.424 181.746 146.424H184.872V144.649C184.872 144.372 184.817 144.113 184.706 143.874C184.592 143.627 184.441 143.413 184.249 143.233C184.056 143.054 183.828 142.911 183.563 142.806C183.307 142.701 183.03 142.649 182.733 142.649H181.867C181.571 142.649 181.291 142.701 181.026 142.806C180.769 142.911 180.545 143.054 180.353 143.233C180.16 143.413 180.007 143.627 179.896 143.874C179.784 144.113 179.727 144.372 179.727 144.649V145.065L178.249 144.84V144.728C178.249 144.263 178.341 143.825 178.524 143.413C178.717 143.001 178.978 142.641 179.306 142.334C179.635 142.027 180.019 141.788 180.461 141.615C180.901 141.435 181.37 141.346 181.867 141.346H182.733C183.229 141.346 183.699 141.435 184.14 141.615C184.58 141.788 184.965 142.027 185.293 142.334C185.623 142.641 185.879 143.001 186.063 143.413C186.256 143.825 186.352 144.263 186.352 144.728V153.076H185.859ZM184.872 147.503H181.746C181.451 147.503 181.171 147.555 180.906 147.66C180.648 147.765 180.425 147.911 180.233 148.099C180.04 148.278 179.887 148.492 179.775 148.739C179.664 148.979 179.607 149.237 179.607 149.514V149.998C179.607 150.275 179.664 150.537 179.775 150.784C179.887 151.024 180.04 151.234 180.233 151.413C180.425 151.593 180.648 151.735 180.906 151.84C181.171 151.945 181.451 151.997 181.746 151.997H182.733C183.03 151.997 183.307 151.945 183.563 151.84C183.828 151.735 184.056 151.593 184.249 151.413C184.441 151.234 184.592 151.024 184.706 150.784C184.817 150.537 184.872 150.275 184.872 149.998V147.503ZM189.803 153.076V136.964H191.282V153.076H189.803ZM199.228 153.076C198.78 153.076 198.355 152.998 197.953 152.84C197.561 152.683 197.216 152.466 196.92 152.189C196.632 151.911 196.4 151.589 196.223 151.222C196.054 150.855 195.97 150.462 195.97 150.042V142.885H193.758V141.57H195.97V138.806L197.45 138.581V141.57H200.575V142.885H197.45V150.11C197.45 150.342 197.493 150.559 197.582 150.761C197.678 150.956 197.805 151.129 197.965 151.278C198.127 151.428 198.314 151.548 198.531 151.638C198.747 151.72 198.979 151.762 199.228 151.762H200.575V153.076H199.228ZM210.049 153.076V144.649C210.049 144.372 209.993 144.113 209.881 143.874C209.769 143.627 209.616 143.413 209.424 143.233C209.231 143.054 209.003 142.911 208.738 142.806C208.482 142.701 208.205 142.649 207.908 142.649H206.923C206.626 142.649 206.346 142.701 206.081 142.806C205.825 142.911 205.6 143.054 205.408 143.233C205.215 143.413 205.064 143.627 204.951 143.874C204.839 144.113 204.782 144.372 204.782 144.649V153.076H203.304V136.964H204.782V142.537C205.119 142.162 205.525 141.87 205.997 141.66C206.47 141.45 206.984 141.346 207.537 141.346H207.908C208.406 141.346 208.874 141.435 209.316 141.615C209.757 141.788 210.14 142.027 210.47 142.334C210.799 142.641 211.055 143.001 211.238 143.413C211.431 143.825 211.527 144.263 211.527 144.728V153.076H210.049ZM222.709 149.919C222.709 150.383 222.613 150.821 222.42 151.234C222.237 151.645 221.979 152.005 221.651 152.312C221.322 152.619 220.937 152.863 220.497 153.043C220.056 153.215 219.587 153.301 219.09 153.301H218.104C217.607 153.301 217.138 153.215 216.698 153.043C216.256 152.863 215.871 152.619 215.543 152.312C215.215 152.005 214.954 151.645 214.761 151.234C214.577 150.821 214.485 150.383 214.485 149.919V144.728C214.485 144.263 214.577 143.825 214.761 143.413C214.954 143.001 215.215 142.641 215.543 142.334C215.871 142.027 216.256 141.788 216.698 141.615C217.138 141.435 217.607 141.346 218.104 141.346H219.09C219.587 141.346 220.056 141.435 220.497 141.615C220.937 141.788 221.322 142.027 221.651 142.334C221.979 142.641 222.237 143.001 222.42 143.413C222.613 143.825 222.709 144.263 222.709 144.728V145.188L221.23 145.413V144.649C221.23 144.372 221.175 144.113 221.061 143.874C220.949 143.627 220.796 143.413 220.606 143.233C220.413 143.054 220.185 142.911 219.92 142.806C219.662 142.701 219.387 142.649 219.09 142.649H218.104C217.808 142.649 217.526 142.701 217.263 142.806C217.006 142.911 216.782 143.054 216.59 143.233C216.397 143.413 216.244 143.627 216.133 143.874C216.021 144.113 215.964 144.372 215.964 144.649V149.998C215.964 150.275 216.021 150.537 216.133 150.784C216.244 151.024 216.397 151.234 216.59 151.413C216.782 151.593 217.006 151.735 217.263 151.84C217.526 151.945 217.808 151.997 218.104 151.997H219.09C219.387 151.997 219.662 151.945 219.92 151.84C220.185 151.735 220.413 151.593 220.606 151.413C220.796 151.234 220.949 151.024 221.061 150.784C221.175 150.537 221.23 150.275 221.23 149.998V149.233L222.709 149.458V149.919ZM233.398 153.076L232.58 151.93C232.243 152.342 231.822 152.675 231.317 152.93C230.812 153.177 230.26 153.301 229.658 153.301H229.286C228.789 153.301 228.32 153.215 227.878 153.043C227.438 152.863 227.053 152.619 226.725 152.312C226.395 152.005 226.136 151.645 225.943 151.234C225.759 150.821 225.667 150.383 225.667 149.919V149.806C225.667 149.342 225.759 148.904 225.943 148.492C226.136 148.08 226.395 147.72 226.725 147.413C227.053 147.106 227.438 146.866 227.878 146.694C228.32 146.514 228.789 146.424 229.286 146.424H232.411V144.649C232.411 144.372 232.355 144.113 232.243 143.874C232.131 143.627 231.978 143.413 231.786 143.233C231.593 143.054 231.365 142.911 231.1 142.806C230.844 142.701 230.568 142.649 230.272 142.649H229.406C229.109 142.649 228.828 142.701 228.564 142.806C228.308 142.911 228.083 143.054 227.89 143.233C227.698 143.413 227.547 143.627 227.433 143.874C227.321 144.113 227.265 144.372 227.265 144.649V145.065L225.787 144.84V144.728C225.787 144.263 225.88 143.825 226.063 143.413C226.256 143.001 226.515 142.641 226.845 142.334C227.174 142.027 227.559 141.788 227.998 141.615C228.44 141.435 228.909 141.346 229.406 141.346H230.272C230.769 141.346 231.238 141.435 231.678 141.615C232.119 141.788 232.504 142.027 232.832 142.334C233.161 142.641 233.417 143.001 233.602 143.413C233.793 143.825 233.889 144.263 233.889 144.728V153.076H233.398ZM232.411 147.503H229.286C228.988 147.503 228.708 147.555 228.444 147.66C228.187 147.765 227.962 147.911 227.77 148.099C227.577 148.278 227.426 148.492 227.313 148.739C227.201 148.979 227.146 149.237 227.146 149.514V149.998C227.146 150.275 227.201 150.537 227.313 150.784C227.426 151.024 227.577 151.234 227.77 151.413C227.962 151.593 228.187 151.735 228.444 151.84C228.708 151.945 228.988 151.997 229.286 151.997H230.272C230.568 151.997 230.844 151.945 231.1 151.84C231.365 151.735 231.593 151.593 231.786 151.413C231.978 151.234 232.131 151.024 232.243 150.784C232.355 150.537 232.411 150.275 232.411 149.998V147.503ZM240.466 142.885C240.17 142.885 239.89 142.937 239.625 143.042C239.368 143.147 239.144 143.289 238.952 143.469C238.759 143.649 238.606 143.863 238.495 144.11C238.383 144.349 238.326 144.608 238.326 144.885V153.076H236.848V141.57H237.34L238.146 142.739C238.483 142.312 238.904 141.975 239.409 141.728C239.921 141.473 240.478 141.346 241.079 141.346H241.945V142.885H240.466ZM252.141 149.919C252.141 150.383 252.045 150.821 251.852 151.234C251.668 151.645 251.411 152.005 251.082 152.312C250.754 152.619 250.369 152.863 249.929 153.043C249.488 153.215 249.018 153.301 248.522 153.301H247.535C247.039 153.301 246.57 153.215 246.13 153.043C245.688 152.863 245.303 152.619 244.975 152.312C244.647 152.005 244.386 151.645 244.193 151.234C244.009 150.821 243.916 150.383 243.916 149.919V144.728C243.916 144.263 244.009 143.825 244.193 143.413C244.386 143.001 244.647 142.641 244.975 142.334C245.303 142.027 245.688 141.788 246.13 141.615C246.57 141.435 247.039 141.346 247.535 141.346H248.522C249.018 141.346 249.488 141.435 249.929 141.615C250.369 141.788 250.754 142.027 251.082 142.334C251.411 142.641 251.668 143.001 251.852 143.413C252.045 143.825 252.141 144.263 252.141 144.728V147.436H245.396V149.998C245.396 150.275 245.453 150.537 245.564 150.784C245.676 151.024 245.829 151.234 246.022 151.413C246.214 151.593 246.437 151.735 246.693 151.84C246.958 151.945 247.24 151.997 247.535 151.997H248.522C248.819 151.997 249.094 151.945 249.352 151.84C249.617 151.735 249.845 151.593 250.036 151.413C250.228 151.234 250.381 151.024 250.493 150.784C250.606 150.537 250.661 150.275 250.661 149.998V149.233L252.141 149.458V149.919ZM250.661 144.649C250.661 144.372 250.606 144.113 250.493 143.874C250.381 143.627 250.228 143.413 250.036 143.233C249.845 143.054 249.617 142.911 249.352 142.806C249.094 142.701 248.819 142.649 248.522 142.649H247.535C247.24 142.649 246.958 142.701 246.693 142.806C246.437 142.911 246.214 143.054 246.022 143.233C245.829 143.413 245.676 143.627 245.564 143.874C245.453 144.113 245.396 144.372 245.396 144.649V146.357H250.661V144.649ZM273.769 153.076V144.649C273.769 144.372 273.714 144.113 273.601 143.874C273.489 143.627 273.336 143.413 273.144 143.233C272.951 143.054 272.724 142.911 272.46 142.806C272.202 142.701 271.925 142.649 271.63 142.649H270.896C270.599 142.649 270.319 142.701 270.054 142.806C269.798 142.911 269.569 143.054 269.37 143.233C269.178 143.413 269.025 143.627 268.913 143.874C268.8 144.113 268.745 144.372 268.745 144.649V153.076H267.277V144.649C267.277 144.372 267.222 144.113 267.109 143.874C266.997 143.627 266.84 143.413 266.639 143.233C266.447 143.054 266.218 142.911 265.956 142.806C265.698 142.701 265.421 142.649 265.125 142.649H264.392C264.094 142.649 263.814 142.701 263.55 142.806C263.294 142.911 263.069 143.054 262.878 143.233C262.685 143.413 262.532 143.627 262.421 143.874C262.307 144.113 262.252 144.372 262.252 144.649V153.076H260.773V141.57H261.266L262.072 142.739C262.409 142.312 262.83 141.975 263.333 141.728C263.847 141.473 264.404 141.346 265.005 141.346H265.125C265.823 141.346 266.452 141.507 267.012 141.829C267.574 142.151 268.007 142.578 268.312 143.11C268.463 142.847 268.652 142.608 268.877 142.391C269.1 142.173 269.349 141.99 269.621 141.84C269.894 141.683 270.191 141.563 270.511 141.48C270.832 141.391 271.164 141.346 271.51 141.346H271.63C272.126 141.346 272.596 141.435 273.035 141.615C273.477 141.788 273.862 142.027 274.19 142.334C274.519 142.641 274.776 143.001 274.96 143.413C275.153 143.825 275.249 144.263 275.249 144.728V153.076H273.769ZM285.936 153.076L285.12 151.93C284.783 152.342 284.362 152.675 283.857 152.93C283.351 153.177 282.798 153.301 282.198 153.301H281.825C281.329 153.301 280.86 153.215 280.418 153.043C279.978 152.863 279.593 152.619 279.263 152.312C278.935 152.005 278.675 151.645 278.483 151.234C278.297 150.821 278.206 150.383 278.206 149.919V149.806C278.206 149.342 278.297 148.904 278.483 148.492C278.675 148.08 278.935 147.72 279.263 147.413C279.593 147.106 279.978 146.866 280.418 146.694C280.86 146.514 281.329 146.424 281.825 146.424H284.951V144.649C284.951 144.372 284.894 144.113 284.783 143.874C284.669 143.627 284.518 143.413 284.326 143.233C284.133 143.054 283.905 142.911 283.64 142.806C283.384 142.701 283.107 142.649 282.81 142.649H281.946C281.648 142.649 281.368 142.701 281.104 142.806C280.848 142.911 280.622 143.054 280.43 143.233C280.238 143.413 280.086 143.627 279.973 143.874C279.861 144.113 279.804 144.372 279.804 144.649V145.065L278.327 144.84V144.728C278.327 144.263 278.418 143.825 278.603 143.413C278.796 143.001 279.055 142.641 279.383 142.334C279.713 142.027 280.098 141.788 280.538 141.615C280.98 141.435 281.447 141.346 281.946 141.346H282.81C283.308 141.346 283.776 141.435 284.217 141.615C284.659 141.788 285.042 142.027 285.372 142.334C285.7 142.641 285.957 143.001 286.14 143.413C286.333 143.825 286.429 144.263 286.429 144.728V153.076H285.936ZM284.951 147.503H281.825C281.528 147.503 281.248 147.555 280.983 147.66C280.727 147.765 280.502 147.911 280.31 148.099C280.117 148.278 279.966 148.492 279.853 148.739C279.741 148.979 279.684 149.237 279.684 149.514V149.998C279.684 150.275 279.741 150.537 279.853 150.784C279.966 151.024 280.117 151.234 280.31 151.413C280.502 151.593 280.727 151.735 280.983 151.84C281.248 151.945 281.528 151.997 281.825 151.997H282.81C283.107 151.997 283.384 151.945 283.64 151.84C283.905 151.735 284.133 151.593 284.326 151.413C284.518 151.234 284.669 151.024 284.783 150.784C284.894 150.537 284.951 150.275 284.951 149.998V147.503ZM297.118 153.076L296.3 151.908C295.963 152.335 295.542 152.675 295.038 152.93C294.533 153.177 293.98 153.301 293.378 153.301H293.006C292.509 153.301 292.04 153.215 291.6 153.043C291.158 152.863 290.773 152.619 290.445 152.312C290.117 152.005 289.856 151.645 289.663 151.234C289.479 150.821 289.387 150.383 289.387 149.919V144.728C289.387 144.263 289.479 143.825 289.663 143.413C289.856 143.001 290.117 142.641 290.445 142.334C290.773 142.027 291.158 141.788 291.6 141.615C292.04 141.435 292.509 141.346 293.006 141.346H293.378C293.932 141.346 294.444 141.45 294.918 141.66C295.391 141.87 295.795 142.162 296.131 142.537V136.964H297.611V153.076H297.118ZM296.131 144.649C296.131 144.372 296.076 144.113 295.963 143.874C295.851 143.627 295.698 143.413 295.508 143.233C295.315 143.054 295.087 142.911 294.822 142.806C294.564 142.701 294.289 142.649 293.992 142.649H293.006C292.71 142.649 292.428 142.701 292.165 142.806C291.907 142.911 291.684 143.054 291.492 143.233C291.299 143.413 291.146 143.627 291.035 143.874C290.923 144.113 290.866 144.372 290.866 144.649V149.998C290.866 150.275 290.923 150.537 291.035 150.784C291.146 151.024 291.299 151.234 291.492 151.413C291.684 151.593 291.907 151.735 292.165 151.84C292.428 151.945 292.71 151.997 293.006 151.997H293.992C294.289 151.997 294.564 151.945 294.822 151.84C295.087 151.735 295.315 151.593 295.508 151.413C295.698 151.234 295.851 151.024 295.963 150.784C296.076 150.537 296.131 150.275 296.131 149.998V144.649ZM308.791 149.919C308.791 150.383 308.695 150.821 308.504 151.234C308.319 151.645 308.063 152.005 307.734 152.312C307.406 152.619 307.021 152.863 306.58 153.043C306.14 153.215 305.671 153.301 305.174 153.301H304.188C303.691 153.301 303.222 153.215 302.78 153.043C302.34 152.863 301.955 152.619 301.627 152.312C301.297 152.005 301.038 151.645 300.845 151.234C300.661 150.821 300.568 150.383 300.568 149.919V144.728C300.568 144.263 300.661 143.825 300.845 143.413C301.038 143.001 301.297 142.641 301.627 142.334C301.955 142.027 302.34 141.788 302.78 141.615C303.222 141.435 303.691 141.346 304.188 141.346H305.174C305.671 141.346 306.14 141.435 306.58 141.615C307.021 141.788 307.406 142.027 307.734 142.334C308.063 142.641 308.319 143.001 308.504 143.413C308.695 143.825 308.791 144.263 308.791 144.728V147.436H302.046V149.998C302.046 150.275 302.103 150.537 302.215 150.784C302.328 151.024 302.479 151.234 302.672 151.413C302.864 151.593 303.089 151.735 303.345 151.84C303.61 151.945 303.89 151.997 304.188 151.997H305.174C305.469 151.997 305.746 151.945 306.002 151.84C306.267 151.735 306.495 151.593 306.688 151.413C306.88 151.234 307.033 151.024 307.145 150.784C307.257 150.537 307.313 150.275 307.313 149.998V149.233L308.791 149.458V149.919ZM307.313 144.649C307.313 144.372 307.257 144.113 307.145 143.874C307.033 143.627 306.88 143.413 306.688 143.233C306.495 143.054 306.267 142.911 306.002 142.806C305.746 142.701 305.469 142.649 305.174 142.649H304.188C303.89 142.649 303.61 142.701 303.345 142.806C303.089 142.911 302.864 143.054 302.672 143.233C302.479 143.413 302.328 143.627 302.215 143.874C302.103 144.113 302.046 144.372 302.046 144.649V146.357H307.313V144.649ZM325.888 150.155C325.888 150.619 325.788 151.046 325.587 151.436C325.388 151.818 325.115 152.147 324.771 152.425C324.426 152.702 324.025 152.919 323.568 153.076C323.12 153.226 322.645 153.301 322.149 153.301H321.164C320.666 153.301 320.19 153.215 319.733 153.043C319.284 152.863 318.887 152.619 318.542 152.312C318.207 152.005 317.933 151.645 317.725 151.234C317.524 150.821 317.425 150.383 317.425 149.919V149.458L318.903 149.233V149.998C318.903 150.275 318.963 150.537 319.083 150.784C319.212 151.024 319.38 151.234 319.588 151.413C319.796 151.593 320.037 151.735 320.31 151.84C320.581 151.945 320.867 151.997 321.164 151.997H322.149C322.446 151.997 322.73 151.956 323.003 151.874C323.276 151.791 323.517 151.675 323.725 151.526C323.941 151.368 324.109 151.181 324.23 150.964C324.357 150.747 324.422 150.499 324.422 150.222C324.422 149.81 324.326 149.473 324.134 149.211C323.941 148.949 323.685 148.731 323.364 148.559C323.051 148.379 322.69 148.233 322.281 148.121C321.881 148.001 321.468 147.885 321.044 147.773C320.618 147.653 320.202 147.518 319.793 147.368C319.392 147.218 319.031 147.024 318.71 146.784C318.397 146.537 318.146 146.23 317.954 145.862C317.762 145.496 317.665 145.039 317.665 144.492C317.665 144.027 317.762 143.604 317.954 143.222C318.146 142.833 318.406 142.499 318.734 142.222C319.064 141.945 319.444 141.731 319.877 141.581C320.319 141.424 320.786 141.346 321.284 141.346H322.149C322.645 141.346 323.114 141.435 323.556 141.615C323.996 141.788 324.381 142.027 324.711 142.334C325.039 142.641 325.295 143.001 325.479 143.413C325.672 143.825 325.768 144.263 325.768 144.728V144.773L324.29 144.997V144.649C324.29 144.372 324.233 144.113 324.122 143.874C324.008 143.627 323.857 143.413 323.664 143.233C323.472 143.054 323.243 142.911 322.979 142.806C322.723 142.701 322.446 142.649 322.149 142.649H321.284C320.987 142.649 320.707 142.69 320.442 142.772C320.186 142.855 319.961 142.975 319.769 143.132C319.576 143.282 319.423 143.465 319.312 143.683C319.2 143.9 319.143 144.147 319.143 144.424C319.143 144.821 319.239 145.147 319.432 145.402C319.624 145.649 319.877 145.859 320.19 146.031C320.509 146.203 320.87 146.349 321.272 146.469C321.68 146.582 322.094 146.701 322.51 146.829C322.934 146.949 323.348 147.087 323.749 147.245C324.158 147.402 324.518 147.604 324.829 147.851C325.151 148.099 325.407 148.409 325.599 148.784C325.792 149.151 325.888 149.608 325.888 150.155ZM329.098 138.806V136.964H330.818V138.806H329.098ZM329.218 153.076V141.57H330.698V153.076H329.218ZM347.157 153.076V144.649C347.157 144.372 347.101 144.113 346.989 143.874C346.875 143.627 346.724 143.413 346.532 143.233C346.339 143.054 346.111 142.911 345.846 142.806C345.59 142.701 345.313 142.649 345.016 142.649H344.284C343.987 142.649 343.707 142.701 343.442 142.806C343.186 142.911 342.957 143.054 342.756 143.233C342.564 143.413 342.411 143.627 342.299 143.874C342.188 144.113 342.131 144.372 342.131 144.649V153.076H340.665V144.649C340.665 144.372 340.608 144.113 340.497 143.874C340.383 143.627 340.227 143.413 340.027 143.233C339.835 143.054 339.606 142.911 339.342 142.806C339.086 142.701 338.809 142.649 338.512 142.649H337.78C337.482 142.649 337.202 142.701 336.938 142.806C336.682 142.911 336.456 143.054 336.264 143.233C336.072 143.413 335.919 143.627 335.807 143.874C335.695 144.113 335.639 144.372 335.639 144.649V153.076H334.161V141.57H334.652L335.458 142.739C335.795 142.312 336.216 141.975 336.721 141.728C337.233 141.473 337.792 141.346 338.391 141.346H338.512C339.209 141.346 339.838 141.507 340.4 141.829C340.961 142.151 341.394 142.578 341.698 143.11C341.851 142.847 342.04 142.608 342.263 142.391C342.488 142.173 342.736 141.99 343.009 141.84C343.28 141.683 343.578 141.563 343.899 141.48C344.219 141.391 344.552 141.346 344.896 141.346H345.016C345.513 141.346 345.982 141.435 346.423 141.615C346.863 141.788 347.248 142.027 347.578 142.334C347.907 142.641 348.163 143.001 348.346 143.413C348.539 143.825 348.635 144.263 348.635 144.728V153.076H347.157ZM359.817 149.919C359.817 150.383 359.721 150.821 359.528 151.234C359.344 151.645 359.087 152.005 358.758 152.312C358.43 152.619 358.045 152.863 357.604 153.043C357.164 153.215 356.695 153.301 356.198 153.301H355.825C355.272 153.301 354.76 153.196 354.285 152.986C353.813 152.777 353.409 152.484 353.072 152.11V157.683H351.593V141.57H352.086L352.892 142.739C353.229 142.312 353.65 141.975 354.153 141.728C354.667 141.473 355.224 141.346 355.825 141.346H356.198C356.695 141.346 357.164 141.435 357.604 141.615C358.045 141.788 358.43 142.027 358.758 142.334C359.087 142.641 359.344 143.001 359.528 143.413C359.721 143.825 359.817 144.263 359.817 144.728V149.919ZM358.337 144.649C358.337 144.372 358.282 144.113 358.169 143.874C358.057 143.627 357.904 143.413 357.712 143.233C357.52 143.054 357.293 142.911 357.028 142.806C356.77 142.701 356.494 142.649 356.198 142.649H355.212C354.916 142.649 354.634 142.701 354.37 142.806C354.114 142.911 353.89 143.054 353.698 143.233C353.505 143.413 353.352 143.627 353.241 143.874C353.127 144.113 353.072 144.372 353.072 144.649V149.998C353.072 150.275 353.127 150.537 353.241 150.784C353.352 151.024 353.505 151.234 353.698 151.413C353.89 151.593 354.114 151.735 354.37 151.84C354.634 151.945 354.916 151.997 355.212 151.997H356.198C356.494 151.997 356.77 151.945 357.028 151.84C357.293 151.735 357.52 151.593 357.712 151.413C357.904 151.234 358.057 151.024 358.169 150.784C358.282 150.537 358.337 150.275 358.337 149.998V144.649ZM363.268 153.076V136.964H364.746V153.076H363.268ZM376.433 149.919C376.433 150.383 376.336 150.821 376.144 151.234C375.958 151.645 375.702 152.005 375.374 152.312C375.046 152.619 374.661 152.863 374.219 153.043C373.779 153.215 373.31 153.301 372.814 153.301H371.827C371.331 153.301 370.861 153.215 370.42 153.043C369.98 152.863 369.595 152.619 369.267 152.312C368.939 152.005 368.677 151.645 368.485 151.234C368.301 150.821 368.208 150.383 368.208 149.919V144.728C368.208 144.263 368.301 143.825 368.485 143.413C368.677 143.001 368.939 142.641 369.267 142.334C369.595 142.027 369.98 141.788 370.42 141.615C370.861 141.435 371.331 141.346 371.827 141.346H372.814C373.31 141.346 373.779 141.435 374.219 141.615C374.661 141.788 375.046 142.027 375.374 142.334C375.702 142.641 375.958 143.001 376.144 143.413C376.336 143.825 376.433 144.263 376.433 144.728V147.436H369.688V149.998C369.688 150.275 369.743 150.537 369.856 150.784C369.968 151.024 370.121 151.234 370.313 151.413C370.504 151.593 370.729 151.735 370.985 151.84C371.25 151.945 371.53 151.997 371.827 151.997H372.814C373.109 151.997 373.386 151.945 373.644 151.84C373.907 151.735 374.135 151.593 374.328 151.413C374.52 151.234 374.673 151.024 374.785 150.784C374.896 150.537 374.953 150.275 374.953 149.998V149.233L376.433 149.458V149.919ZM374.953 144.649C374.953 144.372 374.896 144.113 374.785 143.874C374.673 143.627 374.52 143.413 374.328 143.233C374.135 143.054 373.907 142.911 373.644 142.806C373.386 142.701 373.109 142.649 372.814 142.649H371.827C371.53 142.649 371.25 142.701 370.985 142.806C370.729 142.911 370.504 143.054 370.313 143.233C370.121 143.413 369.968 143.627 369.856 143.874C369.743 144.113 369.688 144.372 369.688 144.649V146.357H374.953V144.649ZM379.39 153.076V151.346H381.241V153.076H379.39Z" fill="#9E9E9E"/>
</svg>
